<svg xmlns="http://www.w3.org/2000/svg" viewBox="0 0 320 200" width="320" height="200"><rect width="320" height="200" fill="#1b2633"/><g fill="none" stroke="#cfe3f5" stroke-width="2.5" stroke-linecap="round" stroke-linejoin="round"><path d="M100 186 C106 140 112 100 118 70 M128 186 C130 140 134 100 138 70"/><path d="M150 186 C150 140 152 100 156 70 M180 186 C178 140 176 100 176 70"/><path d="M114 70 C120 56 140 54 150 60 C166 52 182 56 182 70"/><rect x="118" y="44" width="14" height="12" rx="5"/><rect x="134" y="42" width="14" height="12" rx="5"/><rect x="150" y="42" width="14" height="12" rx="5"/><rect x="166" y="44" width="14" height="12" rx="5"/><path d="M124 40 L110 10"/><path d="M142 40 L138 10"/><path d="M158 40 L162 10"/><path d="M174 40 L190 10"/><path d="M150 128 L158 120 L166 132 L178 122" stroke="#ff8a7a" stroke-width="3.5"/><ellipse cx="164" cy="126" rx="26" ry="16" stroke="#ff8a7a" stroke-dasharray="5 5"/></g></svg>